<svg xmlns="http://www.w3.org/2000/svg" version="1.1" xmlns:xlink="http://www.w3.org/1999/xlink" width="296.32" height="277.51"><svg xmlns="http://www.w3.org/2000/svg" version="1.1" xmlns:xlink="http://www.w3.org/1999/xlink" width="296.32" height="277.51"><svg xmlns="http://www.w3.org/2000/svg" viewBox="0 0 296.32 277.51"><defs><style>.cls-1{fill:#c9a24d;}</style></defs><g id="Layer_2"><path class="cls-1" d="M165.26,189.9,163.54,187.46c-2.4-3.66-5.14-8.76-8.2-15.3l-4.68-9.86-40.53-85.34-.66-1.39c-.29-.62-.92-1.01-1.6-1.01h-2.27c-.5,0-.95.3-1.14.76l-.7,1.64-40.42,95.4c-2.8,6.67-5.37,11.77-7.7,15.3-2.31,3.5-4.78,5.94-7.4,7.35-.03,0-.07.03-.1.05-2.67,1.4-5.8,2.1-9.4,2.1-.53,0-.8.4-.8,1.2,0,.24.03.45.08.62.11.39.35.58.72.58,4.13,0,7.63-.13,10.5-.4,2.86-.26,6.7-.4,11.5-.4,5.06,0,9.26.14,12.6.4,3.33.27,7,.4,11,.4.19,0,.35-.03.48-.1.34-.16.52-.52.52-1.1,0-.8-.34-1.2-1-1.2-8.67,0-14.47-1.8-17.4-5.4-2.94-3.6-2.74-9.46.6-17.6l12.51-29.6h47.8l17.89,37.8c2.66,5.74,3.13,9.64,1.4,11.7-1.52,1.81-5.08,2.83-10.68,3.05-.24.01-.48.02-.72.02-.58.02-1.18.03-1.8.03h-.48c-.27,0-.4.4-.4,1.2s.13,1.2.4,1.2h.46c.68,0,1.39-.01,2.12-.02h.73c2.33-.03,4.86-.09,7.59-.18,4.06-.13,8.3-.2,12.69-.2,4.81,0,10.04.2,15.7.6,4.63.33,8.67.52,12.09.58.77.01,1.5.02,2.21.02,9.07,0,17.7-1.53,25.91-4.6,8.2-3.06,15.43-7.43,21.7-13.1,6.26-5.66,11.2-12.53,14.8-20.6,3.59-8.06,5.4-17.1,5.4-27.1,0-11.46-2.94-21.8-8.81-31-5.86-9.2-14.09-16.46-24.69-21.8-10.61-5.33-22.97-8-37.11-8-3.59,0-7.93.17-13,.5-5.06.34-9.79.5-14.2.5s-8.59-.1-12.59-.3-7.6-.3-10.8-.3h-19.8c-.39,0-.65.41-.48.77l.56,1.18c.13.27.41.45.71.45h19.01c2.4,0,4.51.09,6.32.28,1.82.18,3.34.46,4.57.82,2.47.74,4.11,2.07,4.91,4,.79,1.94,1.2,4.84,1.2,8.7v62.19c0,.59.13,1.17.38,1.71l3.5,7.36,4.98,10.48c1.22,2.61,2.39,5,3.51,7.18.16.31.63.19.63-.16v-88.35c0-6.13,1.73-10,5.2-11.6,3.46-1.6,9.19-2.4,17.19-2.4,11.07,0,20.57,2.77,28.5,8.3,7.94,5.54,14.11,13,18.5,22.4,4.41,9.4,6.61,19.9,6.61,31.5,0,12.4-2.37,22.94-7.11,31.6-4.73,8.67-11.16,15.24-19.3,19.7-8.13,4.47-17.53,6.7-28.2,6.7-4.2,0-7.71-.3-10.52-.88-.85-.18-1.64-.39-2.36-.62-.02,0-.04-.01-.06-.02-2.31-.75-4.29-2.28-5.69-4.27l-2.88-4.11ZM81.74,140.56l.71-1.67,20.15-47.67,22.56,47.67.79,1.67h-44.21Z"></path></g><g id="Layer_3"><path class="cls-1" d="M281.21,59.04c.41-7.1-3.46-14.08-10.48-16.14-8.85-2.6-24.13.26-26.93,10.56-1.23,4.51.07,9.29,2.85,12.96,3.55,4.69,8.4,6.16,13.76,7.85,11.98,3.76,24.24,11.58,26.77,24.77,2.48,12.92-5.22,25.12-14.77,33.08-1.55,1.29,1.38,1.38,2.03,1.35,1.91-.07,4.33-.81,5.82-2.06,14.08-11.73,22.72-32.35,8.92-47.79-3.89-4.35-8.91-7.54-14.21-9.89s-12.08-3.1-16.85-6.87c-3.45-2.72-5.8-6.85-6.07-11.27-.24-3.99,1.68-9.32,6.1-9.98,9.16-1.37,14.84,7.7,14.37,15.77-.07,1.16,8.55.19,8.69-2.33h0Z"></path><path class="cls-1" d="M272.52,216.49c.12,2.03-.19,4.13-.78,6.07-1.59,5.16-4.79,8.27-10.46,7.11-10.06-2.06-11.66-13.81-5.46-20.83,3.92-4.44,10.35-4.98,15.59-7.14s10.23-4.88,14.5-8.57c6.87-5.94,10.98-14.35,10.35-23.51-.76-10.96-7.62-20.49-15.83-27.32-1.77-1.47-9.42,1.91-8.2,2.94,8.59,7.15,15.58,17.44,15.4,29.02-.2,13.2-10.58,22.49-22.26,26.75-9.71,3.54-22.03,7-22.04,19.77,0,12.28,14.42,14.11,23.65,11.65,8.67-2.31,14.77-9,14.23-18.26-.08-1.45-8.83-.01-8.69,2.33h0Z"></path><path class="cls-1" d="M23.8,59.04c-.12-2.03.19-4.13.78-6.07,1.59-5.16,4.79-8.27,10.46-7.11,10.06,2.06,11.66,13.81,5.46,20.83-3.92,4.44-10.35,4.98-15.59,7.14s-10.23,4.88-14.5,8.57C3.54,88.33-.57,96.74.06,105.91c.76,10.96,7.62,20.49,15.83,27.32,1.77,1.47,9.42-1.91,8.2-2.94-8.59-7.15-15.58-17.44-15.4-29.02.2-13.2,10.58-22.49,22.26-26.75,9.71-3.54,22.03-7,22.04-19.77,0-12.28-14.42-14.11-23.65-11.65-8.67,2.31-14.77,9-14.23,18.26.08,1.45,8.83.01,8.69-2.33h0Z"></path><path class="cls-1" d="M15.11,216.49c-.41,7.1,3.46,14.08,10.48,16.14,8.85,2.6,24.13-.26,26.93-10.56,1.23-4.51-.07-9.29-2.85-12.96-3.55-4.69-8.4-6.16-13.76-7.85-11.98-3.76-24.24-11.58-26.77-24.77-2.48-12.92,5.22-25.12,14.77-33.08,1.55-1.29-1.38-1.38-2.03-1.35-1.91.07-4.33.81-5.82,2.06-14.08,11.73-22.72,32.35-8.92,47.79,3.89,4.35,8.91,7.54,14.21,9.89s12.08,3.1,16.85,6.87c3.45,2.72,5.8,6.85,6.07,11.27.24,3.99-1.68,9.32-6.1,9.98-9.16,1.37-14.84-7.7-14.37-15.77.07-1.16-8.55-.19-8.69,2.33h0Z"></path><path class="cls-1" d="M242.83,37.03C202.45-.06,143.12-10.57,92.68,11.34c-14.24,6.19-27.24,14.8-38.71,25.24-2.86,2.6,1.39,6.84,4.24,4.24C82.79,18.46,114.89,5.81,148.18,5.82c33.5,0,65.77,12.83,90.41,35.46,2.84,2.61,7.09-1.62,4.24-4.24h0Z"></path><path class="cls-1" d="M53.96,240.94c40.7,37.03,100.22,47.12,150.66,24.81,14.06-6.22,26.89-14.86,38.2-25.25,2.85-2.62-1.4-6.85-4.24-4.24-24.63,22.63-56.91,35.45-90.41,35.46s-65.39-12.65-89.98-35.01c-2.85-2.59-7.11,1.64-4.24,4.24h0Z"></path></g></svg></svg><style>@media (prefers-color-scheme: light) { :root { filter: none; } }
@media (prefers-color-scheme: dark) { :root { filter: none; } }
</style></svg>